<svg xmlns="http://www.w3.org/2000/svg" xmlns:xlink="http://www.w3.org/1999/xlink" width="500" zoomAndPan="magnify" viewBox="0 0 375 374.999991" height="500" preserveAspectRatio="xMidYMid meet" version="1.0"><defs><g/></defs><g fill="#313926" fill-opacity="1"><g transform="translate(104.978244, 243.545214)"><g><path d="M 10.09375 0 L 10.09375 -2.578125 C 13.132812 -3.492188 15.210938 -5.46875 16.328125 -8.5 C 17.453125 -11.539062 18.015625 -17.085938 18.015625 -25.140625 L 18.015625 -113.4375 C 18.015625 -121.625 17.453125 -127.203125 16.328125 -130.171875 C 15.210938 -133.140625 13.132812 -135.085938 10.09375 -136.015625 L 10.09375 -138.59375 L 103.34375 -138.59375 L 105.125 -117.796875 L 102.953125 -117.203125 C 99.648438 -123.804688 95.554688 -128.492188 90.671875 -131.265625 C 85.785156 -134.035156 78.660156 -135.421875 69.296875 -135.421875 L 34.25 -135.421875 L 34.25 -77.40625 L 57.8125 -77.40625 C 65.332031 -77.40625 71.171875 -77.898438 75.328125 -78.890625 C 79.484375 -79.878906 82.519531 -81.363281 84.4375 -83.34375 C 86.351562 -85.332031 87.707031 -87.773438 88.5 -90.671875 L 90.875 -90.671875 L 90.875 -60.578125 L 88.5 -60.578125 C 87.707031 -63.617188 86.351562 -66.128906 84.4375 -68.109375 C 82.519531 -70.085938 79.484375 -71.601562 75.328125 -72.65625 C 71.171875 -73.71875 65.332031 -74.25 57.8125 -74.25 L 34.25 -74.25 L 34.25 -25.140625 C 34.25 -17.085938 34.804688 -11.539062 35.921875 -8.5 C 37.046875 -5.46875 39.128906 -3.492188 42.171875 -2.578125 L 42.171875 0 Z M 10.09375 0 "/></g></g></g><path stroke-linecap="butt" transform="matrix(0.75, 0, 0, 0.75, 145.571904, 100.311255)" fill="none" stroke-linejoin="miter" d="M 93.701009 166.293338 C 92.211426 161.814171 90.206218 157.43917 87.685384 153.163128 C 85.195801 148.881878 82.247884 145.053753 78.831217 141.673544 C 75.451008 138.256877 71.654133 135.439169 67.440591 133.21521 C 63.232257 130.960002 58.607257 129.569377 53.56559 129.038127 C 51.674965 128.907918 49.701007 128.939168 47.648923 129.137085 C 45.622881 129.335002 43.654131 129.782919 41.727048 130.480835 C 39.836423 131.142294 38.112464 132.09021 36.555172 133.314169 C 34.997881 134.543335 33.888506 136.168336 33.221839 138.189169 L 23.227047 167.933963 C 20.508296 175.689172 19.180171 181.512089 19.24788 185.392297 C 19.315588 189.236047 20.706213 191.157923 23.424963 191.157923 L 23.424963 193.001673 L 6.11767 193.001673 L 6.11767 191.157923 C 6.914545 191.157923 7.857254 190.793339 8.951004 190.064172 C 10.044754 189.303756 11.242671 188.012089 12.534338 186.183964 C 13.826004 184.329797 15.221838 181.876672 16.711421 178.824588 C 18.201005 175.772505 19.763505 171.94438 21.388505 167.335004 L 57.643715 61.199581 L 53.763507 50.006872 L 69.284341 50.006872 L 108.174969 163.454796 C 109.534344 167.267296 110.862469 170.88188 112.154136 174.298546 C 113.451011 177.678755 114.659344 180.63188 115.784344 183.152714 C 116.945803 185.637089 118.008303 187.595422 118.971844 189.022506 C 119.930178 190.444381 120.810386 191.157923 121.607261 191.157923 L 121.607261 193.001673 L 97.779135 193.001673 L 97.779135 191.157923 C 98.477051 191.157923 98.711426 189.267297 98.477051 185.491255 C 98.279135 181.678755 97.23226 176.918338 95.346843 171.215213 Z M 35.461422 132.074585 C 37.747881 129.918335 40.586423 128.543335 43.966631 127.944377 C 47.383298 127.314168 50.581215 127.131877 53.56559 127.397502 C 61.326007 128.095418 68.122883 130.678752 73.956217 135.157919 C 79.794759 139.631877 84.685384 144.986045 88.628092 151.22042 L 58.690591 64.032914 Z M 35.461422 132.074585 " stroke="#faf8f1" stroke-width="10.18635" stroke-opacity="1" stroke-miterlimit="4"/><g fill="#313926" fill-opacity="1"><g transform="translate(145.571904, 245.061246)"><g><path d="M 70.28125 -20.015625 C 69.164062 -23.378906 67.664062 -26.664062 65.78125 -29.875 C 63.894531 -33.082031 61.675781 -35.957031 59.125 -38.5 C 56.582031 -41.050781 53.734375 -43.164062 50.578125 -44.84375 C 47.421875 -46.519531 43.957031 -47.566406 40.1875 -47.984375 C 38.757812 -48.078125 37.28125 -48.046875 35.75 -47.890625 C 34.226562 -47.742188 32.753906 -47.414062 31.328125 -46.90625 C 29.898438 -46.394531 28.597656 -45.679688 27.421875 -44.765625 C 26.253906 -43.847656 25.414062 -42.628906 24.90625 -41.109375 L 17.421875 -18.796875 C 15.378906 -12.984375 14.382812 -8.625 14.4375 -5.71875 C 14.488281 -2.820312 15.535156 -1.375 17.578125 -1.375 L 17.578125 0 L 4.578125 0 L 4.578125 -1.375 C 5.191406 -1.375 5.90625 -1.65625 6.71875 -2.21875 C 7.539062 -2.78125 8.429688 -3.75 9.390625 -5.125 C 10.359375 -6.5 11.398438 -8.332031 12.515625 -10.625 C 13.640625 -12.914062 14.816406 -15.789062 16.046875 -19.25 L 43.234375 -98.859375 L 40.34375 -107.265625 L 51.953125 -107.265625 L 81.140625 -22.15625 C 82.148438 -19.300781 83.140625 -16.597656 84.109375 -14.046875 C 85.078125 -11.503906 85.992188 -9.289062 86.859375 -7.40625 C 87.722656 -5.519531 88.507812 -4.039062 89.21875 -2.96875 C 89.9375 -1.90625 90.601562 -1.375 91.21875 -1.375 L 91.21875 0 L 73.34375 0 L 73.34375 -1.375 C 73.851562 -1.375 74.03125 -2.800781 73.875 -5.65625 C 73.71875 -8.507812 72.929688 -12.070312 71.515625 -16.34375 Z M 26.59375 -45.6875 C 28.320312 -47.3125 30.457031 -48.351562 33 -48.8125 C 35.550781 -49.269531 37.945312 -49.398438 40.1875 -49.203125 C 45.988281 -48.691406 51.078125 -46.753906 55.453125 -43.390625 C 59.835938 -40.035156 63.507812 -36.015625 66.46875 -31.328125 L 44 -96.71875 Z M 26.59375 -45.6875 "/></g></g></g><path stroke-linecap="butt" transform="matrix(0.75, 0, 0, 0.75, 49.473011, 255.632767)" fill="none" stroke-linejoin="miter" d="M 46.494322 29.359437 C 45.926614 27.250062 45.796405 25.151104 46.09328 23.078187 C 46.390155 20.994853 47.041197 19.072978 48.051614 17.31777 C 49.067239 15.562561 50.400572 14.03652 52.046406 12.744853 C 53.697447 11.453186 55.577656 10.520894 57.687031 9.958394 C 59.202656 9.541728 60.72349 9.364644 62.239115 9.421936 C 63.75474 9.479228 65.213073 9.734436 66.603698 10.187561 C 68.00474 10.630269 69.322448 11.260478 70.556823 12.078186 C 71.791199 12.890686 72.884949 13.864645 73.838074 15.000061 L 72.812032 18.916728 L 72.41099 18.916728 C 71.728699 17.552145 70.87974 16.25527 69.864115 15.020895 C 68.853698 13.78652 67.72349 12.75527 66.47349 11.927144 C 65.228698 11.093811 63.864115 10.510478 62.390156 10.187561 C 60.926615 9.859436 59.384948 9.901103 57.775573 10.317769 C 55.843281 10.822978 54.254739 11.729228 53.004739 13.03652 C 51.759947 14.343811 50.806822 15.854228 50.150572 17.56777 C 49.49953 19.270895 49.134947 21.093812 49.051614 23.031312 C 48.978697 24.963604 49.181822 26.791729 49.660989 28.510479 C 50.317239 31.005271 51.353697 33.088604 52.775572 34.760479 C 54.207864 36.421938 55.806823 37.687563 57.577656 38.552146 C 59.348489 39.411521 61.19224 39.880271 63.108906 39.953188 C 65.025573 40.026105 66.832865 39.708396 68.520365 38.994855 C 70.22349 38.276105 71.702657 37.187563 72.963074 35.718813 C 74.228699 34.244854 75.082865 32.406313 75.53599 30.208396 L 75.884949 30.296937 C 75.41099 32.708396 74.452657 34.718813 73.009949 36.338604 C 71.572449 37.958396 69.874532 39.161521 67.921407 39.953188 C 65.978698 40.739646 63.900573 41.114646 61.681823 41.088605 C 59.468281 41.057355 57.348489 40.60423 55.327656 39.724021 C 53.306822 38.849021 51.499531 37.546938 49.900572 35.828188 C 48.31203 34.099021 47.176614 31.942771 46.494322 29.359437 Z M 79.093282 29.401104 C 78.525574 27.291729 78.400574 25.197979 78.713074 23.119854 C 79.025574 21.03652 79.687032 19.119853 80.692241 17.359437 C 81.713074 15.604228 83.035991 14.078186 84.666199 12.78652 C 86.301616 11.494853 88.176616 10.567769 90.285991 10.000061 C 92.400575 9.432353 94.494325 9.296936 96.57245 9.599019 C 98.655784 9.895894 100.57245 10.552144 102.327659 11.567769 C 104.088076 12.578186 105.608909 13.91152 106.905784 15.562561 C 108.197451 17.213603 109.124534 19.088603 109.692243 21.19277 C 110.254743 23.307354 110.390159 25.395895 110.093284 27.463604 C 109.796409 29.536521 109.140159 31.447979 108.124534 33.203188 C 107.114118 34.953188 105.785992 36.479229 104.140159 37.786521 C 102.489117 39.093813 100.608909 40.031313 98.499534 40.599021 C 96.38495 41.161521 94.296408 41.296938 92.223492 41.000063 C 90.1662 40.703188 88.254741 40.04173 86.499533 39.015688 C 84.739116 37.989646 83.207866 36.656313 81.900574 35.020896 C 80.598491 33.390688 79.660991 31.515687 79.093282 29.401104 Z M 106.520368 22.041728 C 106.077659 20.322978 105.343284 18.645895 104.312034 17.010478 C 103.285992 15.369853 102.067242 13.97402 100.655784 12.81777 C 99.244325 11.656311 97.660992 10.833394 95.905783 10.338603 C 94.155783 9.843811 92.327658 9.849019 90.4162 10.359436 C 88.489116 10.869853 86.890158 11.776103 85.624533 13.083395 C 84.364116 14.390686 83.405783 15.895895 82.754741 17.609437 C 82.098491 19.31777 81.739116 21.140687 81.676616 23.078187 C 81.614116 25.010479 81.812033 26.833395 82.259949 28.552146 C 82.733908 30.281312 83.473491 31.953187 84.483908 33.572979 C 85.499533 35.192771 86.718283 36.583396 88.140158 37.744855 C 89.57245 38.906313 91.155783 39.739646 92.890158 40.250063 C 94.629742 40.750063 96.473492 40.72923 98.410992 40.192771 C 100.312034 39.692771 101.895367 38.79173 103.155784 37.484438 C 104.421409 36.166729 105.379742 34.661521 106.030784 32.953188 C 106.687034 31.239646 107.046409 29.427146 107.119326 27.510479 C 107.202659 25.593812 106.999534 23.770895 106.520368 22.041728 Z M 138.181828 36.578188 L 141.666203 41.000063 L 137.603703 41.000063 L 116.285993 13.932353 L 116.285993 33.682354 C 116.285993 34.729229 116.343285 35.677146 116.457868 36.526104 C 116.582868 37.364646 116.723493 38.093813 116.884952 38.703188 C 117.051618 39.312563 117.228702 39.781313 117.416202 40.109438 C 117.614118 40.432355 117.801618 40.599021 117.98391 40.599021 L 117.98391 41.000063 L 114.192243 41.000063 L 114.192243 40.599021 C 114.369326 40.599021 114.551618 40.432355 114.739118 40.109438 C 114.937035 39.781313 115.114118 39.312563 115.270368 38.703188 C 115.437035 38.093813 115.582868 37.364646 115.697451 36.526104 C 115.822451 35.677146 115.879743 34.729229 115.879743 33.682354 L 115.879743 13.44277 L 112.942243 9.692769 L 117.004743 9.692769 L 137.780786 36.088604 L 137.780786 16.958395 C 137.780786 15.921936 137.723495 14.97402 137.603703 14.125061 C 137.48912 13.276103 137.348495 12.557353 137.181828 11.968811 C 137.02037 11.375061 136.843286 10.916728 136.64537 10.588603 C 136.452661 10.255269 136.265161 10.088603 136.093286 10.088603 L 136.093286 9.692769 L 139.879745 9.692769 L 139.879745 10.088603 C 139.697453 10.088603 139.509953 10.255269 139.312036 10.588603 C 139.124536 10.916728 138.947453 11.375061 138.780786 11.968811 C 138.619328 12.557353 138.478703 13.276103 138.353703 14.125061 C 138.23912 14.97402 138.181828 15.921936 138.181828 16.958395 Z M 149.593287 41.000063 L 144.338078 41.000063 L 144.338078 40.599021 C 144.39537 40.599021 144.478703 40.552146 144.598495 40.468813 C 144.718287 40.380271 144.83287 40.213605 144.937037 39.974021 C 145.041203 39.734438 145.140162 39.390688 145.228703 38.932355 C 145.317245 38.468813 145.358912 37.880271 145.358912 37.166729 L 145.358912 13.526103 C 145.358912 12.781311 145.317245 12.182353 145.228703 11.739644 C 145.140162 11.296936 145.041203 10.958394 144.937037 10.718811 C 144.83287 10.479228 144.718287 10.317769 144.598495 10.229228 C 144.478703 10.135478 144.39537 10.088603 144.338078 10.088603 L 144.338078 9.692769 L 163.697455 9.692769 L 163.697455 13.484436 L 163.291205 13.484436 C 162.603705 13.062561 161.926621 12.677145 161.254746 12.31777 C 160.588079 11.963603 159.874538 11.635478 159.114121 11.338603 C 158.358913 11.041728 157.525579 10.791728 156.619329 10.588603 C 155.713079 10.375061 154.707871 10.208394 153.614121 10.088603 L 148.572454 10.088603 L 148.572454 23.208395 C 150.327662 23.208395 151.749537 23.119854 152.827662 22.947979 C 153.916204 22.765687 154.791204 22.56777 155.442246 22.359437 C 156.181829 22.119854 156.744329 21.833395 157.129746 21.510478 L 157.530788 21.510478 L 157.530788 25.296937 L 157.129746 25.296937 C 156.744329 25.000062 156.181829 24.718812 155.442246 24.447979 C 154.791204 24.244854 153.916204 24.057354 152.827662 23.885479 C 151.749537 23.703187 150.327662 23.609437 148.572454 23.609437 L 148.572454 37.166729 C 148.572454 37.880271 148.608912 38.468813 148.681829 38.932355 C 148.754745 39.390688 148.848495 39.734438 148.963079 39.974021 C 149.088079 40.213605 149.20787 40.380271 149.322454 40.468813 C 149.447454 40.552146 149.535995 40.599021 149.593287 40.599021 Z M 166.942246 29.401104 C 166.374538 27.291729 166.24433 25.197979 166.541205 23.119854 C 166.83808 21.03652 167.499538 19.119853 168.520372 17.359437 C 169.551622 15.604228 170.884955 14.078186 172.515164 12.78652 C 174.15058 11.494853 176.02558 10.567769 178.134956 10.000061 C 179.650581 9.588603 181.171414 9.406311 182.687039 9.468811 C 184.202664 9.526103 185.666206 9.776103 187.077664 10.229228 C 188.489123 10.671936 189.817248 11.302144 191.051623 12.125061 C 192.285998 12.937561 193.37454 13.91152 194.327665 15.041728 L 193.259957 18.97402 L 192.858915 18.97402 C 192.176623 17.59902 191.327665 16.296936 190.31204 15.062561 C 189.301623 13.828186 188.171415 12.796936 186.921414 11.968811 C 185.676623 11.135478 184.312039 10.557353 182.838081 10.229228 C 181.374539 9.901103 179.832872 9.947978 178.223497 10.359436 C 176.801622 10.744853 175.551622 11.369853 174.478705 12.234436 C 173.410997 13.093811 172.515164 14.09902 171.796413 15.250061 C 171.08808 16.385478 170.541205 17.645895 170.155788 19.015687 C 169.770372 20.38027 169.562038 21.765687 169.535997 23.166729 L 170.426622 23.166729 C 172.207872 23.166729 173.978705 23.083395 175.749539 22.927145 C 177.520372 22.75527 179.119331 22.552145 180.541206 22.312562 C 182.213081 22.072978 183.822456 21.791728 185.364123 21.463603 L 185.770373 21.463603 L 185.770373 25.25527 L 185.364123 25.25527 C 183.822456 24.958395 182.213081 24.671937 180.541206 24.406312 C 179.119331 24.203187 177.520372 24.010479 175.749539 23.828187 C 173.978705 23.645895 172.207872 23.557354 170.426622 23.557354 L 169.489122 23.557354 C 169.489122 24.421937 169.535997 25.270895 169.61933 26.104229 C 169.707872 26.937562 169.86933 27.755271 170.108913 28.552146 C 170.765163 31.052146 171.801622 33.135479 173.223497 34.802146 C 174.655789 36.468813 176.254747 37.72923 178.025581 38.593813 C 179.796414 39.458396 181.640164 39.927146 183.556831 40.000063 C 185.473498 40.07298 187.280789 39.750063 188.96829 39.04173 C 190.671415 38.32298 192.150581 37.234438 193.410998 35.786521 C 194.676623 34.322979 195.53079 32.479229 195.983915 30.255271 L 196.37454 30.338604 C 195.900582 32.750063 194.93704 34.765688 193.478707 36.385479 C 192.025581 38.000063 190.322456 39.208396 188.369331 40.000063 C 186.426623 40.781313 184.348498 41.161521 182.129747 41.130271 C 179.916206 41.10423 177.796414 40.651105 175.77558 39.781313 C 173.754747 38.901105 171.947455 37.599021 170.348497 35.869854 C 168.759955 34.145896 167.624538 31.989646 166.942246 29.401104 Z M 204.312041 10.088603 C 204.223499 10.088603 204.119332 10.135478 203.994332 10.229228 C 203.879749 10.317769 203.765166 10.479228 203.660999 10.718811 C 203.556832 10.958394 203.463082 11.296936 203.374541 11.739644 C 203.285999 12.182353 203.244332 12.781311 203.244332 13.526103 L 203.244332 37.166729 C 203.244332 37.880271 203.285999 38.468813 203.374541 38.932355 C 203.463082 39.390688 203.556832 39.734438 203.660999 39.974021 C 203.765166 40.213605 203.879749 40.380271 203.994332 40.468813 C 204.119332 40.552146 204.223499 40.599021 204.312041 40.599021 L 204.312041 41.000063 L 199.051624 41.000063 L 199.051624 40.599021 C 199.108915 40.599021 199.197457 40.552146 199.31204 40.468813 C 199.43704 40.380271 199.551624 40.213605 199.650582 39.974021 C 199.759957 39.734438 199.858915 39.390688 199.947457 38.932355 C 200.03079 38.468813 200.077665 37.880271 200.077665 37.166729 L 200.077665 13.526103 C 200.077665 12.781311 200.03079 12.182353 199.947457 11.739644 C 199.858915 11.296936 199.759957 10.958394 199.650582 10.718811 C 199.551624 10.479228 199.43704 10.317769 199.31204 10.229228 C 199.197457 10.135478 199.108915 10.088603 199.051624 10.088603 L 199.051624 9.692769 L 204.312041 9.692769 Z M 232.416209 13.484436 L 232.009959 13.484436 C 231.358917 12.765686 230.718292 12.182353 230.098501 11.739644 C 229.473501 11.296936 228.754751 10.958394 227.952667 10.718811 C 227.145375 10.479228 226.202667 10.317769 225.12975 10.229228 C 224.062042 10.135478 222.775583 10.088603 221.265167 10.088603 L 221.265167 37.166729 C 221.265167 37.880271 221.301625 38.468813 221.374542 38.932355 C 221.447458 39.390688 221.541208 39.734438 221.655792 39.974021 C 221.780792 40.213605 221.900583 40.380271 222.015167 40.468813 C 222.140167 40.552146 222.228708 40.599021 222.291208 40.599021 L 222.291208 41.000063 L 217.072458 41.000063 L 217.072458 40.599021 C 217.12975 40.599021 217.218291 40.552146 217.332875 40.468813 C 217.457875 40.380271 217.572458 40.213605 217.671416 39.974021 C 217.775583 39.734438 217.869333 39.390688 217.952667 38.932355 C 218.051625 38.468813 218.0985 37.880271 218.0985 37.166729 L 218.0985 10.088603 C 216.577666 10.088603 215.286 10.135478 214.207875 10.229228 C 213.140166 10.317769 212.213083 10.479228 211.421416 10.718811 C 210.640166 10.958394 209.931833 11.296936 209.312041 11.739644 C 208.687041 12.182353 208.046416 12.765686 207.395374 13.484436 L 206.989124 13.484436 L 206.989124 9.692769 L 232.416209 9.692769 Z M 254.259961 35.151104 C 253.931836 34.171938 253.494336 33.213604 252.942252 32.276104 C 252.395377 31.343812 251.749544 30.505271 251.004752 29.760479 C 250.265169 29.015687 249.431835 28.395896 248.50996 27.911521 C 247.588085 27.416729 246.577668 27.114645 245.473502 26.994854 C 245.056835 26.968812 244.624543 26.97402 244.176627 27.020895 C 243.733918 27.062562 243.301627 27.16152 242.879751 27.312562 C 242.468293 27.458396 242.088085 27.666729 241.749543 27.932354 C 241.405793 28.203187 241.16621 28.557354 241.020376 29.000062 L 238.827668 35.510479 C 238.233918 37.208396 237.942251 38.484438 237.957876 39.333396 C 237.973501 40.177146 238.280793 40.599021 238.874543 40.599021 L 238.874543 41.000063 L 235.082876 41.000063 L 235.082876 40.599021 C 235.259959 40.599021 235.463084 40.515688 235.702668 40.359438 C 235.942251 40.192771 236.207876 39.906313 236.489126 39.51048 C 236.770376 39.10423 237.077668 38.562563 237.405793 37.895896 C 237.728709 37.229229 238.072459 36.390688 238.426626 35.380271 L 246.364127 12.145895 L 245.515168 9.692769 L 248.911002 9.692769 L 257.426627 34.531313 C 257.723502 35.364646 258.015169 36.156313 258.301627 36.906313 C 258.582878 37.645896 258.848503 38.29173 259.093294 38.843813 C 259.348503 39.390688 259.577669 39.817771 259.791211 40.130271 C 259.999544 40.442771 260.192253 40.599021 260.369336 40.599021 L 260.369336 41.000063 L 255.150586 41.000063 L 255.150586 40.599021 C 255.306836 40.599021 255.353711 40.182355 255.306836 39.35423 C 255.259961 38.520896 255.030794 37.47923 254.619336 36.229229 Z M 241.50996 27.661521 C 242.00996 27.187562 242.629751 26.890687 243.369335 26.75527 C 244.119335 26.619854 244.817252 26.578187 245.473502 26.635479 C 247.171418 26.791729 248.661002 27.354229 249.937044 28.338604 C 251.213085 29.317771 252.286002 30.489646 253.150585 31.854229 L 246.593293 12.765686 Z M 282.134962 34.708396 C 282.614129 35.541729 283.067254 36.317771 283.494337 37.036521 C 283.921421 37.750063 284.312046 38.369855 284.671421 38.911521 C 285.030796 39.437563 285.338088 39.85423 285.582879 40.151105 C 285.838088 40.44798 286.056838 40.599021 286.239129 40.599021 L 286.239129 41.000063 L 281.020379 41.000063 L 281.020379 40.599021 C 281.197462 40.599021 281.119337 40.13548 280.791212 39.213605 C 280.468296 38.29173 279.884962 37.119854 279.051629 35.697979 L 272.280795 23.958395 L 267.239128 23.958395 L 267.239128 37.166729 C 267.239128 37.880271 267.275586 38.468813 267.343295 38.932355 C 267.416211 39.390688 267.51517 39.734438 267.629753 39.974021 C 267.754753 40.213605 267.874545 40.380271 267.989128 40.468813 C 268.114128 40.552146 268.20267 40.599021 268.259961 40.599021 L 268.259961 41.000063 L 263.046419 41.000063 L 263.046419 40.599021 C 263.103711 40.599021 263.192253 40.552146 263.306836 40.468813 C 263.431836 40.380271 263.541211 40.213605 263.645378 39.974021 C 263.754753 39.734438 263.848503 39.390688 263.937045 38.932355 C 264.025586 38.468813 264.067253 37.880271 264.067253 37.166729 L 264.067253 13.526103 C 264.067253 12.781311 264.025586 12.182353 263.937045 11.739644 C 263.848503 11.296936 263.754753 10.958394 263.645378 10.718811 C 263.541211 10.479228 263.431836 10.317769 263.306836 10.229228 C 263.192253 10.135478 263.103711 10.088603 263.046419 10.088603 L 263.046419 9.692769 L 263.447461 9.692769 C 264.780795 9.666728 266.161003 9.578186 267.582878 9.432353 C 269.01517 9.281311 270.384962 9.203186 271.70267 9.203186 C 273.957879 9.203186 275.85892 9.390686 277.405795 9.760478 C 278.952671 10.130269 280.202671 10.640686 281.150587 11.296936 C 282.103712 11.947978 282.786004 12.729228 283.197462 13.635478 C 283.619337 14.541728 283.832879 15.531311 283.832879 16.59902 C 283.832879 17.489645 283.687046 18.328187 283.405796 19.104228 C 283.124546 19.869853 282.661004 20.56777 282.025587 21.19277 C 281.384962 21.81777 280.551629 22.34902 279.520379 22.781312 C 278.494337 23.213604 277.254754 23.531312 275.79642 23.739645 Z M 267.239128 9.828186 L 267.239128 23.609437 L 271.70267 23.609437 C 272.681837 23.609437 273.697462 23.50527 274.749545 23.296937 C 275.801629 23.083395 276.770379 22.713604 277.645379 22.182354 C 278.525587 21.645895 279.254754 20.927145 279.832879 20.015687 C 280.416212 19.109437 280.707879 17.968812 280.707879 16.59902 C 280.707879 15.234436 280.416212 14.09902 279.832879 13.19277 C 279.254754 12.281311 278.525587 11.562561 277.645379 11.036519 C 276.770379 10.494853 275.801629 10.114644 274.749545 9.890686 C 273.697462 9.666728 272.681837 9.552144 271.70267 9.552144 C 271.009962 9.552144 270.286003 9.588603 269.525587 9.651103 C 268.770378 9.708394 268.004753 9.765686 267.239128 9.828186 Z M 294.166213 10.088603 C 294.08288 10.088603 293.973505 10.135478 293.853713 10.229228 C 293.733921 10.317769 293.624546 10.479228 293.515171 10.718811 C 293.411005 10.958394 293.317255 11.296936 293.233921 11.739644 C 293.14538 12.182353 293.103713 12.781311 293.103713 13.526103 L 293.103713 37.166729 C 293.103713 37.880271 293.14538 38.468813 293.233921 38.932355 C 293.317255 39.390688 293.411005 39.734438 293.515171 39.974021 C 293.624546 40.213605 293.733921 40.380271 293.853713 40.468813 C 293.973505 40.552146 294.08288 40.599021 294.166213 40.599021 L 294.166213 41.000063 L 288.911005 41.000063 L 288.911005 40.599021 C 288.968296 40.599021 289.056838 40.552146 289.171421 40.468813 C 289.296421 40.380271 289.405796 40.213605 289.509963 39.974021 C 289.619338 39.734438 289.713088 39.390688 289.80163 38.932355 C 289.890171 38.468813 289.931838 37.880271 289.931838 37.166729 L 289.931838 13.526103 C 289.931838 12.781311 289.890171 12.182353 289.80163 11.739644 C 289.713088 11.296936 289.619338 10.958394 289.509963 10.718811 C 289.405796 10.479228 289.296421 10.317769 289.171421 10.229228 C 289.056838 10.135478 288.968296 10.088603 288.911005 10.088603 L 288.911005 9.692769 L 294.166213 9.692769 Z M 316.020381 35.151104 C 315.697465 34.171938 315.254756 33.213604 314.702673 32.276104 C 314.161006 31.343812 313.515173 30.505271 312.765173 29.760479 C 312.025589 29.015687 311.192256 28.395896 310.270381 27.911521 C 309.348506 27.416729 308.338089 27.114645 307.233922 26.994854 C 306.822464 26.968812 306.390172 26.97402 305.937047 27.020895 C 305.494339 27.062562 305.062047 27.16152 304.645381 27.312562 C 304.228714 27.458396 303.853714 27.666729 303.509964 27.932354 C 303.171422 28.203187 302.92663 28.557354 302.780797 29.000062 L 300.593297 35.510479 C 299.999547 37.208396 299.70788 38.484438 299.723505 39.333396 C 299.733922 40.177146 300.041214 40.599021 300.634964 40.599021 L 300.634964 41.000063 L 296.848505 41.000063 L 296.848505 40.599021 C 297.02038 40.599021 297.228713 40.515688 297.468297 40.359438 C 297.70788 40.192771 297.968297 39.906313 298.249547 39.51048 C 298.536005 39.10423 298.838088 38.562563 299.166214 37.895896 C 299.494339 37.229229 299.83288 36.390688 300.187047 35.380271 L 308.129756 12.145895 L 307.275589 9.692769 L 310.676631 9.692769 L 319.192256 34.531313 C 319.489132 35.364646 319.780798 36.156313 320.062048 36.906313 C 320.343298 37.645896 320.608923 38.29173 320.858923 38.843813 C 321.108923 39.390688 321.343298 39.817771 321.551632 40.130271 C 321.765173 40.442771 321.957882 40.599021 322.129757 40.599021 L 322.129757 41.000063 L 316.916215 41.000063 L 316.916215 40.599021 C 317.067256 40.599021 317.11934 40.182355 317.067256 39.35423 C 317.02559 38.520896 316.796423 37.47923 316.379756 36.229229 Z M 303.27038 27.661521 C 303.77038 27.187562 304.390172 26.890687 305.134964 26.75527 C 305.879756 26.619854 306.582881 26.578187 307.233922 26.635479 C 308.931839 26.791729 310.421423 27.354229 311.697464 28.338604 C 312.978714 29.317771 314.046423 30.489646 314.911006 31.854229 L 308.353714 12.765686 Z M 303.27038 27.661521 " stroke="#faf8f1" stroke-width="2.23012" stroke-opacity="1" stroke-miterlimit="4"/><g fill="#313926" fill-opacity="1"><g transform="translate(82.906602, 286.382765)"><g><path d="M 1.4375 -8.734375 C 1.007812 -10.316406 0.90625 -11.890625 1.125 -13.453125 C 1.351562 -15.015625 1.847656 -16.453125 2.609375 -17.765625 C 3.367188 -19.078125 4.363281 -20.21875 5.59375 -21.1875 C 6.832031 -22.15625 8.242188 -22.851562 9.828125 -23.28125 C 10.972656 -23.59375 12.113281 -23.726562 13.25 -23.6875 C 14.382812 -23.644531 15.472656 -23.453125 16.515625 -23.109375 C 17.566406 -22.773438 18.554688 -22.300781 19.484375 -21.6875 C 20.410156 -21.082031 21.234375 -20.351562 21.953125 -19.5 L 21.171875 -16.5625 L 20.875 -16.5625 C 20.363281 -17.582031 19.726562 -18.554688 18.96875 -19.484375 C 18.207031 -20.410156 17.359375 -21.1875 16.421875 -21.8125 C 15.484375 -22.4375 14.460938 -22.867188 13.359375 -23.109375 C 12.253906 -23.359375 11.101562 -23.328125 9.90625 -23.015625 C 8.457031 -22.640625 7.265625 -21.957031 6.328125 -20.96875 C 5.390625 -19.988281 4.675781 -18.859375 4.1875 -17.578125 C 3.695312 -16.296875 3.421875 -14.929688 3.359375 -13.484375 C 3.304688 -12.035156 3.457031 -10.660156 3.8125 -9.359375 C 4.300781 -7.492188 5.082031 -5.9375 6.15625 -4.6875 C 7.226562 -3.4375 8.425781 -2.488281 9.75 -1.84375 C 11.070312 -1.195312 12.453125 -0.84375 13.890625 -0.78125 C 15.335938 -0.726562 16.695312 -0.96875 17.96875 -1.5 C 19.238281 -2.039062 20.347656 -2.863281 21.296875 -3.96875 C 22.242188 -5.070312 22.882812 -6.445312 23.21875 -8.09375 L 23.484375 -8.03125 C 23.128906 -6.21875 22.410156 -4.703125 21.328125 -3.484375 C 20.242188 -2.273438 18.972656 -1.375 17.515625 -0.78125 C 16.054688 -0.195312 14.492188 0.0820312 12.828125 0.0625 C 11.171875 0.0390625 9.582031 -0.296875 8.0625 -0.953125 C 6.539062 -1.609375 5.179688 -2.582031 3.984375 -3.875 C 2.796875 -5.175781 1.945312 -6.796875 1.4375 -8.734375 Z M 1.4375 -8.734375 "/></g></g></g><g fill="#313926" fill-opacity="1"><g transform="translate(107.388603, 286.382765)"><g><path d="M 1.40625 -8.703125 C 0.976562 -10.285156 0.878906 -11.851562 1.109375 -13.40625 C 1.347656 -14.96875 1.847656 -16.40625 2.609375 -17.71875 C 3.367188 -19.039062 4.359375 -20.1875 5.578125 -21.15625 C 6.804688 -22.125 8.210938 -22.820312 9.796875 -23.25 C 11.378906 -23.675781 12.953125 -23.773438 14.515625 -23.546875 C 16.078125 -23.328125 17.515625 -22.835938 18.828125 -22.078125 C 20.148438 -21.316406 21.296875 -20.316406 22.265625 -19.078125 C 23.234375 -17.847656 23.929688 -16.441406 24.359375 -14.859375 C 24.773438 -13.273438 24.875 -11.707031 24.65625 -10.15625 C 24.4375 -8.601562 23.945312 -7.164062 23.1875 -5.84375 C 22.425781 -4.53125 21.425781 -3.382812 20.1875 -2.40625 C 18.945312 -1.425781 17.535156 -0.722656 15.953125 -0.296875 C 14.367188 0.117188 12.800781 0.21875 11.25 0 C 9.707031 -0.21875 8.273438 -0.710938 6.953125 -1.484375 C 5.640625 -2.253906 4.492188 -3.253906 3.515625 -4.484375 C 2.535156 -5.710938 1.832031 -7.117188 1.40625 -8.703125 Z M 21.984375 -14.21875 C 21.648438 -15.507812 21.097656 -16.769531 20.328125 -18 C 19.554688 -19.226562 18.640625 -20.273438 17.578125 -21.140625 C 16.515625 -22.015625 15.328125 -22.632812 14.015625 -23 C 12.703125 -23.363281 11.332031 -23.359375 9.90625 -22.984375 C 8.457031 -22.597656 7.257812 -21.914062 6.3125 -20.9375 C 5.363281 -19.957031 4.640625 -18.828125 4.140625 -17.546875 C 3.648438 -16.265625 3.382812 -14.898438 3.34375 -13.453125 C 3.300781 -12.003906 3.445312 -10.628906 3.78125 -9.328125 C 4.132812 -8.035156 4.691406 -6.78125 5.453125 -5.5625 C 6.210938 -4.351562 7.125 -3.3125 8.1875 -2.4375 C 9.257812 -1.570312 10.445312 -0.945312 11.75 -0.5625 C 13.0625 -0.1875 14.441406 -0.203125 15.890625 -0.609375 C 17.316406 -0.984375 18.503906 -1.660156 19.453125 -2.640625 C 20.398438 -3.617188 21.117188 -4.75 21.609375 -6.03125 C 22.097656 -7.320312 22.367188 -8.6875 22.421875 -10.125 C 22.484375 -11.5625 22.335938 -12.925781 21.984375 -14.21875 Z M 21.984375 -14.21875 "/></g></g></g><g fill="#313926" fill-opacity="1"><g transform="translate(133.174979, 286.382765)"><g><path d="M 19.9375 -3.3125 L 22.546875 0 L 19.5 0 L 3.515625 -20.3125 L 3.515625 -5.484375 C 3.515625 -4.703125 3.554688 -3.992188 3.640625 -3.359375 C 3.734375 -2.722656 3.835938 -2.175781 3.953125 -1.71875 C 4.078125 -1.257812 4.210938 -0.90625 4.359375 -0.65625 C 4.503906 -0.414062 4.644531 -0.296875 4.78125 -0.296875 L 4.78125 0 L 1.9375 0 L 1.9375 -0.296875 C 2.070312 -0.296875 2.210938 -0.414062 2.359375 -0.65625 C 2.503906 -0.90625 2.632812 -1.257812 2.75 -1.71875 C 2.875 -2.175781 2.984375 -2.722656 3.078125 -3.359375 C 3.171875 -3.992188 3.21875 -4.703125 3.21875 -5.484375 L 3.21875 -20.671875 L 1 -23.484375 L 4.046875 -23.484375 L 19.640625 -3.6875 L 19.640625 -18.03125 C 19.640625 -18.8125 19.59375 -19.519531 19.5 -20.15625 C 19.414062 -20.789062 19.3125 -21.332031 19.1875 -21.78125 C 19.0625 -22.226562 18.925781 -22.570312 18.78125 -22.8125 C 18.632812 -23.0625 18.492188 -23.1875 18.359375 -23.1875 L 18.359375 -23.484375 L 21.203125 -23.484375 L 21.203125 -23.1875 C 21.078125 -23.1875 20.941406 -23.0625 20.796875 -22.8125 C 20.648438 -22.570312 20.515625 -22.226562 20.390625 -21.78125 C 20.265625 -21.332031 20.15625 -20.789062 20.0625 -20.15625 C 19.976562 -19.519531 19.9375 -18.8125 19.9375 -18.03125 Z M 19.9375 -3.3125 "/></g></g></g><g fill="#313926" fill-opacity="1"><g transform="translate(156.720509, 286.382765)"><g><path d="M 4.953125 0 L 1 0 L 1 -0.296875 C 1.050781 -0.296875 1.117188 -0.328125 1.203125 -0.390625 C 1.296875 -0.460938 1.378906 -0.585938 1.453125 -0.765625 C 1.535156 -0.941406 1.609375 -1.203125 1.671875 -1.546875 C 1.734375 -1.898438 1.765625 -2.34375 1.765625 -2.875 L 1.765625 -20.609375 C 1.765625 -21.160156 1.734375 -21.601562 1.671875 -21.9375 C 1.609375 -22.28125 1.535156 -22.539062 1.453125 -22.71875 C 1.378906 -22.894531 1.296875 -23.015625 1.203125 -23.078125 C 1.117188 -23.148438 1.050781 -23.1875 1 -23.1875 L 1 -23.484375 L 15.515625 -23.484375 L 15.515625 -20.640625 L 15.21875 -20.640625 C 14.707031 -20.953125 14.203125 -21.238281 13.703125 -21.5 C 13.203125 -21.769531 12.664062 -22.015625 12.09375 -22.234375 C 11.519531 -22.460938 10.894531 -22.65625 10.21875 -22.8125 C 9.539062 -22.96875 8.789062 -23.09375 7.96875 -23.1875 L 4.1875 -23.1875 L 4.1875 -13.34375 C 5.5 -13.34375 6.5625 -13.410156 7.375 -13.546875 C 8.1875 -13.679688 8.835938 -13.828125 9.328125 -13.984375 C 9.890625 -14.160156 10.316406 -14.375 10.609375 -14.625 L 10.90625 -14.625 L 10.90625 -11.78125 L 10.609375 -11.78125 C 10.316406 -12 9.890625 -12.207031 9.328125 -12.40625 C 8.835938 -12.5625 8.1875 -12.707031 7.375 -12.84375 C 6.5625 -12.976562 5.5 -13.046875 4.1875 -13.046875 L 4.1875 -2.875 C 4.1875 -2.34375 4.210938 -1.898438 4.265625 -1.546875 C 4.316406 -1.203125 4.382812 -0.941406 4.46875 -0.765625 C 4.5625 -0.585938 4.65625 -0.460938 4.75 -0.390625 C 4.84375 -0.328125 4.910156 -0.296875 4.953125 -0.296875 Z M 4.953125 0 "/></g></g></g><g fill="#313926" fill-opacity="1"><g transform="translate(173.242515, 286.382765)"><g><path d="M 1.4375 -8.703125 C 1.007812 -10.285156 0.90625 -11.851562 1.125 -13.40625 C 1.351562 -14.96875 1.851562 -16.40625 2.625 -17.71875 C 3.394531 -19.039062 4.390625 -20.1875 5.609375 -21.15625 C 6.835938 -22.125 8.242188 -22.820312 9.828125 -23.25 C 10.972656 -23.5625 12.113281 -23.691406 13.25 -23.640625 C 14.382812 -23.597656 15.476562 -23.410156 16.53125 -23.078125 C 17.59375 -22.742188 18.585938 -22.269531 19.515625 -21.65625 C 20.441406 -21.039062 21.265625 -20.3125 21.984375 -19.46875 L 21.171875 -16.53125 L 20.875 -16.53125 C 20.363281 -17.550781 19.726562 -18.523438 18.96875 -19.453125 C 18.207031 -20.378906 17.359375 -21.15625 16.421875 -21.78125 C 15.484375 -22.40625 14.460938 -22.835938 13.359375 -23.078125 C 12.253906 -23.328125 11.101562 -23.296875 9.90625 -22.984375 C 8.832031 -22.691406 7.894531 -22.222656 7.09375 -21.578125 C 6.289062 -20.929688 5.617188 -20.175781 5.078125 -19.3125 C 4.546875 -18.457031 4.132812 -17.515625 3.84375 -16.484375 C 3.550781 -15.460938 3.394531 -14.425781 3.375 -13.375 L 4.046875 -13.375 C 5.390625 -13.375 6.722656 -13.4375 8.046875 -13.5625 C 9.367188 -13.6875 10.566406 -13.835938 11.640625 -14.015625 C 12.890625 -14.191406 14.09375 -14.40625 15.25 -14.65625 L 15.5625 -14.65625 L 15.5625 -11.8125 L 15.25 -11.8125 C 14.09375 -12.03125 12.890625 -12.238281 11.640625 -12.4375 C 10.566406 -12.59375 9.367188 -12.738281 8.046875 -12.875 C 6.722656 -13.007812 5.390625 -13.078125 4.046875 -13.078125 L 3.34375 -13.078125 C 3.34375 -12.429688 3.375 -11.796875 3.4375 -11.171875 C 3.507812 -10.546875 3.632812 -9.929688 3.8125 -9.328125 C 4.300781 -7.453125 5.082031 -5.890625 6.15625 -4.640625 C 7.226562 -3.398438 8.425781 -2.457031 9.75 -1.8125 C 11.070312 -1.164062 12.453125 -0.8125 13.890625 -0.75 C 15.335938 -0.695312 16.695312 -0.9375 17.96875 -1.46875 C 19.238281 -2.007812 20.347656 -2.820312 21.296875 -3.90625 C 22.242188 -5 22.882812 -6.382812 23.21875 -8.0625 L 23.515625 -8 C 23.160156 -6.1875 22.4375 -4.671875 21.34375 -3.453125 C 20.25 -2.242188 18.972656 -1.34375 17.515625 -0.75 C 16.054688 -0.15625 14.492188 0.125 12.828125 0.09375 C 11.171875 0.0703125 9.582031 -0.265625 8.0625 -0.921875 C 6.539062 -1.578125 5.179688 -2.550781 3.984375 -3.84375 C 2.796875 -5.132812 1.945312 -6.753906 1.4375 -8.703125 Z M 1.4375 -8.703125 "/></g></g></g><g fill="#313926" fill-opacity="1"><g transform="translate(197.757967, 286.382765)"><g><path d="M 4.953125 -23.1875 C 4.878906 -23.1875 4.796875 -23.148438 4.703125 -23.078125 C 4.617188 -23.015625 4.535156 -22.894531 4.453125 -22.71875 C 4.378906 -22.539062 4.304688 -22.28125 4.234375 -21.9375 C 4.171875 -21.601562 4.140625 -21.160156 4.140625 -20.609375 L 4.140625 -2.875 C 4.140625 -2.34375 4.171875 -1.898438 4.234375 -1.546875 C 4.304688 -1.203125 4.378906 -0.941406 4.453125 -0.765625 C 4.535156 -0.585938 4.617188 -0.460938 4.703125 -0.390625 C 4.796875 -0.328125 4.878906 -0.296875 4.953125 -0.296875 L 4.953125 0 L 1 0 L 1 -0.296875 C 1.050781 -0.296875 1.117188 -0.328125 1.203125 -0.390625 C 1.296875 -0.460938 1.378906 -0.585938 1.453125 -0.765625 C 1.535156 -0.941406 1.609375 -1.203125 1.671875 -1.546875 C 1.734375 -1.898438 1.765625 -2.34375 1.765625 -2.875 L 1.765625 -20.609375 C 1.765625 -21.160156 1.734375 -21.601562 1.671875 -21.9375 C 1.609375 -22.28125 1.535156 -22.539062 1.453125 -22.71875 C 1.378906 -22.894531 1.296875 -23.015625 1.203125 -23.078125 C 1.117188 -23.148438 1.050781 -23.1875 1 -23.1875 L 1 -23.484375 L 4.953125 -23.484375 Z M 4.953125 -23.1875 "/></g></g></g><g fill="#313926" fill-opacity="1"><g transform="translate(203.711241, 286.382765)"><g><path d="M 20.078125 -20.640625 L 19.765625 -20.640625 C 19.273438 -21.171875 18.796875 -21.601562 18.328125 -21.9375 C 17.859375 -22.28125 17.320312 -22.539062 16.71875 -22.71875 C 16.125 -22.894531 15.425781 -23.015625 14.625 -23.078125 C 13.820312 -23.148438 12.847656 -23.1875 11.703125 -23.1875 L 11.703125 -2.875 C 11.703125 -2.34375 11.726562 -1.898438 11.78125 -1.546875 C 11.84375 -1.203125 11.914062 -0.941406 12 -0.765625 C 12.09375 -0.585938 12.179688 -0.460938 12.265625 -0.390625 C 12.359375 -0.328125 12.429688 -0.296875 12.484375 -0.296875 L 12.484375 0 L 8.5625 0 L 8.5625 -0.296875 C 8.601562 -0.296875 8.671875 -0.328125 8.765625 -0.390625 C 8.859375 -0.460938 8.941406 -0.585938 9.015625 -0.765625 C 9.085938 -0.941406 9.15625 -1.203125 9.21875 -1.546875 C 9.289062 -1.898438 9.328125 -2.34375 9.328125 -2.875 L 9.328125 -23.1875 C 8.191406 -23.1875 7.222656 -23.148438 6.421875 -23.078125 C 5.617188 -23.015625 4.921875 -22.894531 4.328125 -22.71875 C 3.742188 -22.539062 3.21875 -22.28125 2.75 -21.9375 C 2.28125 -21.601562 1.796875 -21.171875 1.296875 -20.640625 L 1 -20.640625 L 1 -23.484375 L 20.078125 -23.484375 Z M 20.078125 -20.640625 "/></g></g></g><g fill="#313926" fill-opacity="1"><g transform="translate(224.781815, 286.382765)"><g><path d="M 15.390625 -4.375 C 15.140625 -5.113281 14.804688 -5.832031 14.390625 -6.53125 C 13.984375 -7.238281 13.5 -7.867188 12.9375 -8.421875 C 12.382812 -8.984375 11.757812 -9.445312 11.0625 -9.8125 C 10.375 -10.1875 9.617188 -10.414062 8.796875 -10.5 C 8.484375 -10.519531 8.160156 -10.515625 7.828125 -10.484375 C 7.492188 -10.453125 7.171875 -10.378906 6.859375 -10.265625 C 6.546875 -10.160156 6.257812 -10.003906 6 -9.796875 C 5.75 -9.597656 5.566406 -9.332031 5.453125 -9 L 3.8125 -4.109375 C 3.363281 -2.835938 3.144531 -1.882812 3.15625 -1.25 C 3.164062 -0.613281 3.394531 -0.296875 3.84375 -0.296875 L 3.84375 0 L 1 0 L 1 -0.296875 C 1.132812 -0.296875 1.289062 -0.359375 1.46875 -0.484375 C 1.644531 -0.609375 1.835938 -0.820312 2.046875 -1.125 C 2.265625 -1.425781 2.492188 -1.828125 2.734375 -2.328125 C 2.984375 -2.828125 3.242188 -3.457031 3.515625 -4.21875 L 9.46875 -21.640625 L 8.828125 -23.484375 L 11.375 -23.484375 L 17.765625 -4.84375 C 17.984375 -4.21875 18.195312 -3.625 18.40625 -3.0625 C 18.625 -2.507812 18.828125 -2.023438 19.015625 -1.609375 C 19.203125 -1.203125 19.375 -0.878906 19.53125 -0.640625 C 19.6875 -0.410156 19.832031 -0.296875 19.96875 -0.296875 L 19.96875 0 L 16.0625 0 L 16.0625 -0.296875 C 16.164062 -0.296875 16.203125 -0.609375 16.171875 -1.234375 C 16.140625 -1.859375 15.96875 -2.640625 15.65625 -3.578125 Z M 5.828125 -10 C 6.203125 -10.351562 6.664062 -10.582031 7.21875 -10.6875 C 7.78125 -10.789062 8.304688 -10.816406 8.796875 -10.765625 C 10.066406 -10.660156 11.179688 -10.238281 12.140625 -9.5 C 13.097656 -8.757812 13.898438 -7.878906 14.546875 -6.859375 L 9.640625 -21.171875 Z M 5.828125 -10 "/></g></g></g><g fill="#313926" fill-opacity="1"><g transform="translate(245.752059, 286.382765)"><g><path d="M 15.328125 -4.71875 C 15.679688 -4.09375 16.019531 -3.507812 16.34375 -2.96875 C 16.664062 -2.4375 16.957031 -1.96875 17.21875 -1.5625 C 17.488281 -1.164062 17.71875 -0.851562 17.90625 -0.625 C 18.101562 -0.40625 18.269531 -0.296875 18.40625 -0.296875 L 18.40625 0 L 14.484375 0 L 14.484375 -0.296875 C 14.617188 -0.296875 14.5625 -0.640625 14.3125 -1.328125 C 14.070312 -2.023438 13.640625 -2.910156 13.015625 -3.984375 L 7.921875 -12.78125 L 4.140625 -12.78125 L 4.140625 -2.875 C 4.140625 -2.34375 4.164062 -1.898438 4.21875 -1.546875 C 4.28125 -1.203125 4.351562 -0.941406 4.4375 -0.765625 C 4.53125 -0.585938 4.617188 -0.460938 4.703125 -0.390625 C 4.796875 -0.328125 4.867188 -0.296875 4.921875 -0.296875 L 4.921875 0 L 1 0 L 1 -0.296875 C 1.050781 -0.296875 1.117188 -0.328125 1.203125 -0.390625 C 1.296875 -0.460938 1.378906 -0.585938 1.453125 -0.765625 C 1.535156 -0.941406 1.609375 -1.203125 1.671875 -1.546875 C 1.734375 -1.898438 1.765625 -2.34375 1.765625 -2.875 L 1.765625 -20.609375 C 1.765625 -21.160156 1.734375 -21.601562 1.671875 -21.9375 C 1.609375 -22.28125 1.535156 -22.539062 1.453125 -22.71875 C 1.378906 -22.894531 1.296875 -23.015625 1.203125 -23.078125 C 1.117188 -23.148438 1.050781 -23.1875 1 -23.1875 L 1 -23.484375 L 1.296875 -23.484375 C 2.304688 -23.503906 3.34375 -23.570312 4.40625 -23.6875 C 5.476562 -23.800781 6.507812 -23.859375 7.5 -23.859375 C 9.1875 -23.859375 10.609375 -23.71875 11.765625 -23.4375 C 12.929688 -23.15625 13.867188 -22.769531 14.578125 -22.28125 C 15.296875 -21.789062 15.8125 -21.203125 16.125 -20.515625 C 16.4375 -19.835938 16.59375 -19.097656 16.59375 -18.296875 C 16.59375 -17.628906 16.484375 -17.003906 16.265625 -16.421875 C 16.054688 -15.847656 15.710938 -15.328125 15.234375 -14.859375 C 14.753906 -14.390625 14.128906 -13.992188 13.359375 -13.671875 C 12.585938 -13.347656 11.660156 -13.109375 10.578125 -12.953125 Z M 4.140625 -23.390625 L 4.140625 -13.046875 L 7.5 -13.046875 C 8.226562 -13.046875 8.988281 -13.125 9.78125 -13.28125 C 10.570312 -13.4375 11.296875 -13.710938 11.953125 -14.109375 C 12.617188 -14.515625 13.164062 -15.054688 13.59375 -15.734375 C 14.03125 -16.421875 14.25 -17.273438 14.25 -18.296875 C 14.25 -19.328125 14.03125 -20.179688 13.59375 -20.859375 C 13.164062 -21.535156 12.617188 -22.070312 11.953125 -22.46875 C 11.296875 -22.875 10.570312 -23.160156 9.78125 -23.328125 C 8.988281 -23.492188 8.226562 -23.578125 7.5 -23.578125 C 6.976562 -23.578125 6.429688 -23.554688 5.859375 -23.515625 C 5.296875 -23.472656 4.722656 -23.429688 4.140625 -23.390625 Z M 4.140625 -23.390625 "/></g></g></g><g fill="#313926" fill-opacity="1"><g transform="translate(265.150365, 286.382765)"><g><path d="M 4.953125 -23.1875 C 4.878906 -23.1875 4.796875 -23.148438 4.703125 -23.078125 C 4.617188 -23.015625 4.535156 -22.894531 4.453125 -22.71875 C 4.378906 -22.539062 4.304688 -22.28125 4.234375 -21.9375 C 4.171875 -21.601562 4.140625 -21.160156 4.140625 -20.609375 L 4.140625 -2.875 C 4.140625 -2.34375 4.171875 -1.898438 4.234375 -1.546875 C 4.304688 -1.203125 4.378906 -0.941406 4.453125 -0.765625 C 4.535156 -0.585938 4.617188 -0.460938 4.703125 -0.390625 C 4.796875 -0.328125 4.878906 -0.296875 4.953125 -0.296875 L 4.953125 0 L 1 0 L 1 -0.296875 C 1.050781 -0.296875 1.117188 -0.328125 1.203125 -0.390625 C 1.296875 -0.460938 1.378906 -0.585938 1.453125 -0.765625 C 1.535156 -0.941406 1.609375 -1.203125 1.671875 -1.546875 C 1.734375 -1.898438 1.765625 -2.34375 1.765625 -2.875 L 1.765625 -20.609375 C 1.765625 -21.160156 1.734375 -21.601562 1.671875 -21.9375 C 1.609375 -22.28125 1.535156 -22.539062 1.453125 -22.71875 C 1.378906 -22.894531 1.296875 -23.015625 1.203125 -23.078125 C 1.117188 -23.148438 1.050781 -23.1875 1 -23.1875 L 1 -23.484375 L 4.953125 -23.484375 Z M 4.953125 -23.1875 "/></g></g></g><g fill="#313926" fill-opacity="1"><g transform="translate(271.103638, 286.382765)"><g><path d="M 15.390625 -4.375 C 15.140625 -5.113281 14.804688 -5.832031 14.390625 -6.53125 C 13.984375 -7.238281 13.5 -7.867188 12.9375 -8.421875 C 12.382812 -8.984375 11.757812 -9.445312 11.0625 -9.8125 C 10.375 -10.1875 9.617188 -10.414062 8.796875 -10.5 C 8.484375 -10.519531 8.160156 -10.515625 7.828125 -10.484375 C 7.492188 -10.453125 7.171875 -10.378906 6.859375 -10.265625 C 6.546875 -10.160156 6.257812 -10.003906 6 -9.796875 C 5.75 -9.597656 5.566406 -9.332031 5.453125 -9 L 3.8125 -4.109375 C 3.363281 -2.835938 3.144531 -1.882812 3.15625 -1.25 C 3.164062 -0.613281 3.394531 -0.296875 3.84375 -0.296875 L 3.84375 0 L 1 0 L 1 -0.296875 C 1.132812 -0.296875 1.289062 -0.359375 1.46875 -0.484375 C 1.644531 -0.609375 1.835938 -0.820312 2.046875 -1.125 C 2.265625 -1.425781 2.492188 -1.828125 2.734375 -2.328125 C 2.984375 -2.828125 3.242188 -3.457031 3.515625 -4.21875 L 9.46875 -21.640625 L 8.828125 -23.484375 L 11.375 -23.484375 L 17.765625 -4.84375 C 17.984375 -4.21875 18.195312 -3.625 18.40625 -3.0625 C 18.625 -2.507812 18.828125 -2.023438 19.015625 -1.609375 C 19.203125 -1.203125 19.375 -0.878906 19.53125 -0.640625 C 19.6875 -0.410156 19.832031 -0.296875 19.96875 -0.296875 L 19.96875 0 L 16.0625 0 L 16.0625 -0.296875 C 16.164062 -0.296875 16.203125 -0.609375 16.171875 -1.234375 C 16.140625 -1.859375 15.96875 -2.640625 15.65625 -3.578125 Z M 5.828125 -10 C 6.203125 -10.351562 6.664062 -10.582031 7.21875 -10.6875 C 7.78125 -10.789062 8.304688 -10.816406 8.796875 -10.765625 C 10.066406 -10.660156 11.179688 -10.238281 12.140625 -9.5 C 13.097656 -8.757812 13.898438 -7.878906 14.546875 -6.859375 L 9.640625 -21.171875 Z M 5.828125 -10 "/></g></g></g></svg>